<mxfile host="app.diagrams.net" modified="2020-11-01T09:12:41.544Z" agent="5.0 (Windows NT 10.0; Win64; x64) AppleWebKit/537.36 (KHTML, like Gecko) Chrome/86.0.4240.111 Safari/537.36" etag="E-zkKJxZe-_5Ml__sZA0" version="13.8.8" type="github">
  <diagram id="C5RBs43oDa-KdzZeNtuy" name="Page-1">
    <mxGraphModel dx="3253" dy="2527" grid="1" gridSize="10" guides="1" tooltips="1" connect="1" arrows="1" fold="1" page="1" pageScale="1" pageWidth="827" pageHeight="1169" math="0" shadow="0">
      <root>
        <mxCell id="WIyWlLk6GJQsqaUBKTNV-0" />
        <mxCell id="WIyWlLk6GJQsqaUBKTNV-1" parent="WIyWlLk6GJQsqaUBKTNV-0" />
        <mxCell id="yuEU6Taa_u60sKVBq3v5-282" value="" style="shape=folder;fontStyle=1;spacingTop=10;tabWidth=100;tabHeight=30;tabPosition=left;html=1;" vertex="1" parent="WIyWlLk6GJQsqaUBKTNV-1">
          <mxGeometry x="450" y="-130" width="1170" height="1420" as="geometry" />
        </mxCell>
        <mxCell id="yuEU6Taa_u60sKVBq3v5-126" value="" style="shape=folder;fontStyle=1;spacingTop=10;tabWidth=80;tabHeight=30;tabPosition=left;html=1;" vertex="1" parent="WIyWlLk6GJQsqaUBKTNV-1">
          <mxGeometry x="30" y="578" width="380" height="430" as="geometry" />
        </mxCell>
        <mxCell id="yuEU6Taa_u60sKVBq3v5-75" value="" style="shape=folder;fontStyle=1;spacingTop=10;tabWidth=85;tabHeight=30;tabPosition=left;html=1;" vertex="1" parent="WIyWlLk6GJQsqaUBKTNV-1">
          <mxGeometry x="30" y="170" width="380" height="360" as="geometry" />
        </mxCell>
        <object label="" id="yuEU6Taa_u60sKVBq3v5-47">
          <mxCell style="shape=folder;fontStyle=1;spacingTop=10;tabWidth=100;tabHeight=30;tabPosition=left;html=1;" vertex="1" parent="WIyWlLk6GJQsqaUBKTNV-1">
            <mxGeometry x="-440" y="250" width="400" height="340" as="geometry" />
          </mxCell>
        </object>
        <mxCell id="yuEU6Taa_u60sKVBq3v5-1" value="KIOSK" style="swimlane;fontStyle=1;align=center;verticalAlign=top;childLayout=stackLayout;horizontal=1;startSize=30;horizontalStack=0;resizeParent=1;resizeParentMax=0;resizeLast=0;collapsible=1;marginBottom=0;" vertex="1" parent="WIyWlLk6GJQsqaUBKTNV-1">
          <mxGeometry x="140" y="-60" width="160" height="190" as="geometry" />
        </mxCell>
        <mxCell id="yuEU6Taa_u60sKVBq3v5-2" value="- 이름" style="text;strokeColor=none;fillColor=none;align=left;verticalAlign=top;spacingLeft=4;spacingRight=4;overflow=hidden;rotatable=0;points=[[0,0.5],[1,0.5]];portConstraint=eastwest;" vertex="1" parent="yuEU6Taa_u60sKVBq3v5-1">
          <mxGeometry y="30" width="160" height="26" as="geometry" />
        </mxCell>
        <mxCell id="yuEU6Taa_u60sKVBq3v5-6" value="- 주소" style="text;strokeColor=none;fillColor=none;align=left;verticalAlign=top;spacingLeft=4;spacingRight=4;overflow=hidden;rotatable=0;points=[[0,0.5],[1,0.5]];portConstraint=eastwest;" vertex="1" parent="yuEU6Taa_u60sKVBq3v5-1">
          <mxGeometry y="56" width="160" height="26" as="geometry" />
        </mxCell>
        <mxCell id="yuEU6Taa_u60sKVBq3v5-3" value="" style="line;strokeWidth=1;fillColor=none;align=left;verticalAlign=middle;spacingTop=-1;spacingLeft=3;spacingRight=3;rotatable=0;labelPosition=right;points=[];portConstraint=eastwest;" vertex="1" parent="yuEU6Taa_u60sKVBq3v5-1">
          <mxGeometry y="82" width="160" height="18" as="geometry" />
        </mxCell>
        <mxCell id="yuEU6Taa_u60sKVBq3v5-4" value="주문 결제" style="text;strokeColor=none;fillColor=none;align=left;verticalAlign=top;spacingLeft=4;spacingRight=4;overflow=hidden;rotatable=0;points=[[0,0.5],[1,0.5]];portConstraint=eastwest;" vertex="1" parent="yuEU6Taa_u60sKVBq3v5-1">
          <mxGeometry y="100" width="160" height="30" as="geometry" />
        </mxCell>
        <mxCell id="yuEU6Taa_u60sKVBq3v5-7" value="언어 선택" style="text;strokeColor=none;fillColor=none;align=left;verticalAlign=top;spacingLeft=4;spacingRight=4;overflow=hidden;rotatable=0;points=[[0,0.5],[1,0.5]];portConstraint=eastwest;" vertex="1" parent="yuEU6Taa_u60sKVBq3v5-1">
          <mxGeometry y="130" width="160" height="30" as="geometry" />
        </mxCell>
        <mxCell id="yuEU6Taa_u60sKVBq3v5-8" value="관리" style="text;strokeColor=none;fillColor=none;align=left;verticalAlign=top;spacingLeft=4;spacingRight=4;overflow=hidden;rotatable=0;points=[[0,0.5],[1,0.5]];portConstraint=eastwest;" vertex="1" parent="yuEU6Taa_u60sKVBq3v5-1">
          <mxGeometry y="160" width="160" height="30" as="geometry" />
        </mxCell>
        <mxCell id="yuEU6Taa_u60sKVBq3v5-9" value="참여자" style="swimlane;fontStyle=0;childLayout=stackLayout;horizontal=1;startSize=26;fillColor=none;horizontalStack=0;resizeParent=1;resizeParentMax=0;resizeLast=0;collapsible=1;marginBottom=0;" vertex="1" parent="WIyWlLk6GJQsqaUBKTNV-1">
          <mxGeometry x="-310" y="300" width="140" height="52" as="geometry" />
        </mxCell>
        <mxCell id="yuEU6Taa_u60sKVBq3v5-17" value="관리자" style="swimlane;fontStyle=1;align=center;verticalAlign=top;childLayout=stackLayout;horizontal=1;startSize=26;horizontalStack=0;resizeParent=1;resizeParentMax=0;resizeLast=0;collapsible=1;marginBottom=0;" vertex="1" parent="WIyWlLk6GJQsqaUBKTNV-1">
          <mxGeometry x="-430" y="440" width="160" height="138" as="geometry" />
        </mxCell>
        <mxCell id="yuEU6Taa_u60sKVBq3v5-18" value="- ID" style="text;strokeColor=none;fillColor=none;align=left;verticalAlign=top;spacingLeft=4;spacingRight=4;overflow=hidden;rotatable=0;points=[[0,0.5],[1,0.5]];portConstraint=eastwest;" vertex="1" parent="yuEU6Taa_u60sKVBq3v5-17">
          <mxGeometry y="26" width="160" height="26" as="geometry" />
        </mxCell>
        <mxCell id="yuEU6Taa_u60sKVBq3v5-21" value="- PW" style="text;strokeColor=none;fillColor=none;align=left;verticalAlign=top;spacingLeft=4;spacingRight=4;overflow=hidden;rotatable=0;points=[[0,0.5],[1,0.5]];portConstraint=eastwest;" vertex="1" parent="yuEU6Taa_u60sKVBq3v5-17">
          <mxGeometry y="52" width="160" height="26" as="geometry" />
        </mxCell>
        <mxCell id="yuEU6Taa_u60sKVBq3v5-22" value="- 이름" style="text;strokeColor=none;fillColor=none;align=left;verticalAlign=top;spacingLeft=4;spacingRight=4;overflow=hidden;rotatable=0;points=[[0,0.5],[1,0.5]];portConstraint=eastwest;" vertex="1" parent="yuEU6Taa_u60sKVBq3v5-17">
          <mxGeometry y="78" width="160" height="26" as="geometry" />
        </mxCell>
        <mxCell id="yuEU6Taa_u60sKVBq3v5-19" value="" style="line;strokeWidth=1;fillColor=none;align=left;verticalAlign=middle;spacingTop=-1;spacingLeft=3;spacingRight=3;rotatable=0;labelPosition=right;points=[];portConstraint=eastwest;" vertex="1" parent="yuEU6Taa_u60sKVBq3v5-17">
          <mxGeometry y="104" width="160" height="8" as="geometry" />
        </mxCell>
        <mxCell id="yuEU6Taa_u60sKVBq3v5-20" value="승인(ID, PW) : 관리" style="text;strokeColor=none;fillColor=none;align=left;verticalAlign=top;spacingLeft=4;spacingRight=4;overflow=hidden;rotatable=0;points=[[0,0.5],[1,0.5]];portConstraint=eastwest;" vertex="1" parent="yuEU6Taa_u60sKVBq3v5-17">
          <mxGeometry y="112" width="160" height="26" as="geometry" />
        </mxCell>
        <mxCell id="yuEU6Taa_u60sKVBq3v5-25" value="손님" style="swimlane;fontStyle=1;align=center;verticalAlign=top;childLayout=stackLayout;horizontal=1;startSize=26;horizontalStack=0;resizeParent=1;resizeParentMax=0;resizeLast=0;collapsible=1;marginBottom=0;" vertex="1" parent="WIyWlLk6GJQsqaUBKTNV-1">
          <mxGeometry x="-210" y="440" width="160" height="112" as="geometry" />
        </mxCell>
        <mxCell id="yuEU6Taa_u60sKVBq3v5-26" value="-" style="text;strokeColor=none;fillColor=none;align=left;verticalAlign=top;spacingLeft=4;spacingRight=4;overflow=hidden;rotatable=0;points=[[0,0.5],[1,0.5]];portConstraint=eastwest;" vertex="1" parent="yuEU6Taa_u60sKVBq3v5-25">
          <mxGeometry y="26" width="160" height="26" as="geometry" />
        </mxCell>
        <mxCell id="yuEU6Taa_u60sKVBq3v5-27" value="" style="line;strokeWidth=1;fillColor=none;align=left;verticalAlign=middle;spacingTop=-1;spacingLeft=3;spacingRight=3;rotatable=0;labelPosition=right;points=[];portConstraint=eastwest;" vertex="1" parent="yuEU6Taa_u60sKVBq3v5-25">
          <mxGeometry y="52" width="160" height="8" as="geometry" />
        </mxCell>
        <mxCell id="yuEU6Taa_u60sKVBq3v5-28" value="주문" style="text;strokeColor=none;fillColor=none;align=left;verticalAlign=top;spacingLeft=4;spacingRight=4;overflow=hidden;rotatable=0;points=[[0,0.5],[1,0.5]];portConstraint=eastwest;" vertex="1" parent="yuEU6Taa_u60sKVBq3v5-25">
          <mxGeometry y="60" width="160" height="26" as="geometry" />
        </mxCell>
        <mxCell id="yuEU6Taa_u60sKVBq3v5-29" value="언어 선택" style="text;strokeColor=none;fillColor=none;align=left;verticalAlign=top;spacingLeft=4;spacingRight=4;overflow=hidden;rotatable=0;points=[[0,0.5],[1,0.5]];portConstraint=eastwest;" vertex="1" parent="yuEU6Taa_u60sKVBq3v5-25">
          <mxGeometry y="86" width="160" height="26" as="geometry" />
        </mxCell>
        <mxCell id="yuEU6Taa_u60sKVBq3v5-33" value="" style="endArrow=block;endSize=16;endFill=0;html=1;exitX=0.444;exitY=0;exitDx=0;exitDy=0;exitPerimeter=0;" edge="1" parent="WIyWlLk6GJQsqaUBKTNV-1" source="yuEU6Taa_u60sKVBq3v5-17">
          <mxGeometry x="-0.6153" y="-32" width="160" relative="1" as="geometry">
            <mxPoint x="-240" y="400" as="sourcePoint" />
            <mxPoint x="-240" y="352" as="targetPoint" />
            <Array as="points">
              <mxPoint x="-360" y="400" />
              <mxPoint x="-240" y="400" />
            </Array>
            <mxPoint x="10" y="-62" as="offset" />
          </mxGeometry>
        </mxCell>
        <mxCell id="yuEU6Taa_u60sKVBq3v5-38" value="" style="endArrow=block;endSize=16;endFill=0;html=1;exitX=0.563;exitY=0;exitDx=0;exitDy=0;exitPerimeter=0;" edge="1" parent="WIyWlLk6GJQsqaUBKTNV-1" source="yuEU6Taa_u60sKVBq3v5-25">
          <mxGeometry x="-0.6154" y="-45" width="160" relative="1" as="geometry">
            <mxPoint x="-250" y="402" as="sourcePoint" />
            <mxPoint x="-240" y="352" as="targetPoint" />
            <Array as="points">
              <mxPoint x="-120" y="400" />
              <mxPoint x="-240" y="400" />
              <mxPoint x="-240" y="372" />
            </Array>
            <mxPoint x="20" y="5" as="offset" />
          </mxGeometry>
        </mxCell>
        <mxCell id="yuEU6Taa_u60sKVBq3v5-49" value="참여자 패키지" style="text;align=center;fontStyle=1;verticalAlign=middle;spacingLeft=3;spacingRight=3;strokeColor=none;rotatable=0;points=[[0,0.5],[1,0.5]];portConstraint=eastwest;" vertex="1" parent="WIyWlLk6GJQsqaUBKTNV-1">
          <mxGeometry x="-430" y="250" width="80" height="26" as="geometry" />
        </mxCell>
        <mxCell id="yuEU6Taa_u60sKVBq3v5-53" value="&lt;p style=&quot;margin: 0px ; margin-top: 4px ; text-align: center&quot;&gt;&lt;b&gt;언어 선택&lt;/b&gt;&lt;/p&gt;&lt;hr size=&quot;1&quot;&gt;&lt;div style=&quot;height: 2px&quot;&gt;- 언어명&lt;/div&gt;" style="verticalAlign=top;align=left;overflow=fill;fontSize=12;fontFamily=Helvetica;html=1;" vertex="1" parent="WIyWlLk6GJQsqaUBKTNV-1">
          <mxGeometry x="150" y="240" width="140" height="60" as="geometry" />
        </mxCell>
        <mxCell id="yuEU6Taa_u60sKVBq3v5-59" value="" style="endArrow=none;html=1;edgeStyle=orthogonalEdgeStyle;exitX=0.5;exitY=0;exitDx=0;exitDy=0;" edge="1" parent="WIyWlLk6GJQsqaUBKTNV-1" source="yuEU6Taa_u60sKVBq3v5-53" target="yuEU6Taa_u60sKVBq3v5-8">
          <mxGeometry relative="1" as="geometry">
            <mxPoint x="180" y="220" as="sourcePoint" />
            <mxPoint x="218" y="140" as="targetPoint" />
            <Array as="points">
              <mxPoint x="220" y="210" />
              <mxPoint x="220" y="210" />
            </Array>
          </mxGeometry>
        </mxCell>
        <mxCell id="yuEU6Taa_u60sKVBq3v5-62" value="" style="endArrow=none;html=1;edgeStyle=orthogonalEdgeStyle;exitX=0.5;exitY=0;exitDx=0;exitDy=0;entryX=-0.025;entryY=0.105;entryDx=0;entryDy=0;entryPerimeter=0;" edge="1" parent="WIyWlLk6GJQsqaUBKTNV-1" source="yuEU6Taa_u60sKVBq3v5-9" target="yuEU6Taa_u60sKVBq3v5-1">
          <mxGeometry relative="1" as="geometry">
            <mxPoint x="-240" y="40" as="sourcePoint" />
            <mxPoint x="90" y="40" as="targetPoint" />
            <Array as="points">
              <mxPoint x="-240" y="-40" />
            </Array>
          </mxGeometry>
        </mxCell>
        <mxCell id="yuEU6Taa_u60sKVBq3v5-65" value="한국어" style="swimlane;fontStyle=1;align=center;verticalAlign=top;childLayout=stackLayout;horizontal=1;startSize=26;horizontalStack=0;resizeParent=1;resizeParentMax=0;resizeLast=0;collapsible=1;marginBottom=0;" vertex="1" parent="WIyWlLk6GJQsqaUBKTNV-1">
          <mxGeometry x="40" y="436" width="160" height="86" as="geometry" />
        </mxCell>
        <mxCell id="yuEU6Taa_u60sKVBq3v5-66" value="-" style="text;strokeColor=none;fillColor=none;align=left;verticalAlign=top;spacingLeft=4;spacingRight=4;overflow=hidden;rotatable=0;points=[[0,0.5],[1,0.5]];portConstraint=eastwest;" vertex="1" parent="yuEU6Taa_u60sKVBq3v5-65">
          <mxGeometry y="26" width="160" height="26" as="geometry" />
        </mxCell>
        <mxCell id="yuEU6Taa_u60sKVBq3v5-67" value="" style="line;strokeWidth=1;fillColor=none;align=left;verticalAlign=middle;spacingTop=-1;spacingLeft=3;spacingRight=3;rotatable=0;labelPosition=right;points=[];portConstraint=eastwest;" vertex="1" parent="yuEU6Taa_u60sKVBq3v5-65">
          <mxGeometry y="52" width="160" height="8" as="geometry" />
        </mxCell>
        <mxCell id="yuEU6Taa_u60sKVBq3v5-68" value="-" style="text;strokeColor=none;fillColor=none;align=left;verticalAlign=top;spacingLeft=4;spacingRight=4;overflow=hidden;rotatable=0;points=[[0,0.5],[1,0.5]];portConstraint=eastwest;" vertex="1" parent="yuEU6Taa_u60sKVBq3v5-65">
          <mxGeometry y="60" width="160" height="26" as="geometry" />
        </mxCell>
        <mxCell id="yuEU6Taa_u60sKVBq3v5-69" value="영어" style="swimlane;fontStyle=1;align=center;verticalAlign=top;childLayout=stackLayout;horizontal=1;startSize=26;horizontalStack=0;resizeParent=1;resizeParentMax=0;resizeLast=0;collapsible=1;marginBottom=0;" vertex="1" parent="WIyWlLk6GJQsqaUBKTNV-1">
          <mxGeometry x="240" y="436" width="160" height="86" as="geometry" />
        </mxCell>
        <mxCell id="yuEU6Taa_u60sKVBq3v5-70" value="-" style="text;strokeColor=none;fillColor=none;align=left;verticalAlign=top;spacingLeft=4;spacingRight=4;overflow=hidden;rotatable=0;points=[[0,0.5],[1,0.5]];portConstraint=eastwest;" vertex="1" parent="yuEU6Taa_u60sKVBq3v5-69">
          <mxGeometry y="26" width="160" height="26" as="geometry" />
        </mxCell>
        <mxCell id="yuEU6Taa_u60sKVBq3v5-71" value="" style="line;strokeWidth=1;fillColor=none;align=left;verticalAlign=middle;spacingTop=-1;spacingLeft=3;spacingRight=3;rotatable=0;labelPosition=right;points=[];portConstraint=eastwest;" vertex="1" parent="yuEU6Taa_u60sKVBq3v5-69">
          <mxGeometry y="52" width="160" height="8" as="geometry" />
        </mxCell>
        <mxCell id="yuEU6Taa_u60sKVBq3v5-72" value="-" style="text;strokeColor=none;fillColor=none;align=left;verticalAlign=top;spacingLeft=4;spacingRight=4;overflow=hidden;rotatable=0;points=[[0,0.5],[1,0.5]];portConstraint=eastwest;" vertex="1" parent="yuEU6Taa_u60sKVBq3v5-69">
          <mxGeometry y="60" width="160" height="26" as="geometry" />
        </mxCell>
        <mxCell id="yuEU6Taa_u60sKVBq3v5-73" value="" style="endArrow=block;endSize=16;endFill=0;html=1;entryX=0.5;entryY=1;entryDx=0;entryDy=0;exitX=0.563;exitY=0.047;exitDx=0;exitDy=0;exitPerimeter=0;" edge="1" parent="WIyWlLk6GJQsqaUBKTNV-1" source="yuEU6Taa_u60sKVBq3v5-65" target="yuEU6Taa_u60sKVBq3v5-53">
          <mxGeometry x="-0.3333" y="-80" width="160" relative="1" as="geometry">
            <mxPoint x="130" y="430" as="sourcePoint" />
            <mxPoint x="260" y="390" as="targetPoint" />
            <Array as="points">
              <mxPoint x="130" y="360" />
              <mxPoint x="220" y="360" />
            </Array>
            <mxPoint as="offset" />
          </mxGeometry>
        </mxCell>
        <mxCell id="yuEU6Taa_u60sKVBq3v5-74" value="" style="endArrow=block;endSize=16;endFill=0;html=1;exitX=0.55;exitY=0;exitDx=0;exitDy=0;exitPerimeter=0;entryX=0.5;entryY=1;entryDx=0;entryDy=0;" edge="1" parent="WIyWlLk6GJQsqaUBKTNV-1" source="yuEU6Taa_u60sKVBq3v5-69" target="yuEU6Taa_u60sKVBq3v5-53">
          <mxGeometry y="50" width="160" relative="1" as="geometry">
            <mxPoint x="334" y="350" as="sourcePoint" />
            <mxPoint x="494" y="350" as="targetPoint" />
            <Array as="points">
              <mxPoint x="328" y="360" />
              <mxPoint x="220" y="360" />
            </Array>
            <mxPoint as="offset" />
          </mxGeometry>
        </mxCell>
        <mxCell id="yuEU6Taa_u60sKVBq3v5-78" value="언어 패키지" style="text;align=center;fontStyle=1;verticalAlign=middle;spacingLeft=3;spacingRight=3;strokeColor=none;rotatable=0;points=[[0,0.5],[1,0.5]];portConstraint=eastwest;" vertex="1" parent="WIyWlLk6GJQsqaUBKTNV-1">
          <mxGeometry x="30" y="170" width="80" height="26" as="geometry" />
        </mxCell>
        <mxCell id="yuEU6Taa_u60sKVBq3v5-79" value="관리" style="swimlane;fontStyle=1;align=center;verticalAlign=top;childLayout=stackLayout;horizontal=1;startSize=26;horizontalStack=0;resizeParent=1;resizeParentMax=0;resizeLast=0;collapsible=1;marginBottom=0;" vertex="1" parent="WIyWlLk6GJQsqaUBKTNV-1">
          <mxGeometry x="144" y="638" width="160" height="112" as="geometry" />
        </mxCell>
        <mxCell id="yuEU6Taa_u60sKVBq3v5-80" value="-" style="text;strokeColor=none;fillColor=none;align=left;verticalAlign=top;spacingLeft=4;spacingRight=4;overflow=hidden;rotatable=0;points=[[0,0.5],[1,0.5]];portConstraint=eastwest;" vertex="1" parent="yuEU6Taa_u60sKVBq3v5-79">
          <mxGeometry y="26" width="160" height="26" as="geometry" />
        </mxCell>
        <mxCell id="yuEU6Taa_u60sKVBq3v5-81" value="" style="line;strokeWidth=1;fillColor=none;align=left;verticalAlign=middle;spacingTop=-1;spacingLeft=3;spacingRight=3;rotatable=0;labelPosition=right;points=[];portConstraint=eastwest;" vertex="1" parent="yuEU6Taa_u60sKVBq3v5-79">
          <mxGeometry y="52" width="160" height="8" as="geometry" />
        </mxCell>
        <mxCell id="yuEU6Taa_u60sKVBq3v5-82" value="메뉴 관리" style="text;strokeColor=none;fillColor=none;align=left;verticalAlign=top;spacingLeft=4;spacingRight=4;overflow=hidden;rotatable=0;points=[[0,0.5],[1,0.5]];portConstraint=eastwest;" vertex="1" parent="yuEU6Taa_u60sKVBq3v5-79">
          <mxGeometry y="60" width="160" height="26" as="geometry" />
        </mxCell>
        <mxCell id="yuEU6Taa_u60sKVBq3v5-83" value="매출 현황" style="text;strokeColor=none;fillColor=none;align=left;verticalAlign=top;spacingLeft=4;spacingRight=4;overflow=hidden;rotatable=0;points=[[0,0.5],[1,0.5]];portConstraint=eastwest;" vertex="1" parent="yuEU6Taa_u60sKVBq3v5-79">
          <mxGeometry y="86" width="160" height="26" as="geometry" />
        </mxCell>
        <mxCell id="yuEU6Taa_u60sKVBq3v5-105" value="" style="endArrow=block;endSize=16;endFill=0;html=1;exitX=0.5;exitY=0;exitDx=0;exitDy=0;" edge="1" parent="yuEU6Taa_u60sKVBq3v5-79" source="yuEU6Taa_u60sKVBq3v5-84">
          <mxGeometry x="0.4579" y="-34" width="160" relative="1" as="geometry">
            <mxPoint x="-70" y="111" as="sourcePoint" />
            <mxPoint x="90" y="111" as="targetPoint" />
            <Array as="points">
              <mxPoint x="-20" y="150" />
              <mxPoint x="40" y="150" />
              <mxPoint x="90" y="150" />
            </Array>
            <mxPoint as="offset" />
          </mxGeometry>
        </mxCell>
        <mxCell id="yuEU6Taa_u60sKVBq3v5-84" value="메뉴관리" style="swimlane;fontStyle=1;align=center;verticalAlign=top;childLayout=stackLayout;horizontal=1;startSize=26;horizontalStack=0;resizeParent=1;resizeParentMax=0;resizeLast=0;collapsible=1;marginBottom=0;" vertex="1" parent="WIyWlLk6GJQsqaUBKTNV-1">
          <mxGeometry x="44" y="828" width="160" height="164" as="geometry" />
        </mxCell>
        <mxCell id="yuEU6Taa_u60sKVBq3v5-85" value="-" style="text;strokeColor=none;fillColor=none;align=left;verticalAlign=top;spacingLeft=4;spacingRight=4;overflow=hidden;rotatable=0;points=[[0,0.5],[1,0.5]];portConstraint=eastwest;" vertex="1" parent="yuEU6Taa_u60sKVBq3v5-84">
          <mxGeometry y="26" width="160" height="26" as="geometry" />
        </mxCell>
        <mxCell id="yuEU6Taa_u60sKVBq3v5-86" value="" style="line;strokeWidth=1;fillColor=none;align=left;verticalAlign=middle;spacingTop=-1;spacingLeft=3;spacingRight=3;rotatable=0;labelPosition=right;points=[];portConstraint=eastwest;" vertex="1" parent="yuEU6Taa_u60sKVBq3v5-84">
          <mxGeometry y="52" width="160" height="8" as="geometry" />
        </mxCell>
        <mxCell id="yuEU6Taa_u60sKVBq3v5-87" value="메뉴 추가" style="text;strokeColor=none;fillColor=none;align=left;verticalAlign=top;spacingLeft=4;spacingRight=4;overflow=hidden;rotatable=0;points=[[0,0.5],[1,0.5]];portConstraint=eastwest;" vertex="1" parent="yuEU6Taa_u60sKVBq3v5-84">
          <mxGeometry y="60" width="160" height="26" as="geometry" />
        </mxCell>
        <mxCell id="yuEU6Taa_u60sKVBq3v5-88" value="메뉴 삭제" style="text;strokeColor=none;fillColor=none;align=left;verticalAlign=top;spacingLeft=4;spacingRight=4;overflow=hidden;rotatable=0;points=[[0,0.5],[1,0.5]];portConstraint=eastwest;" vertex="1" parent="yuEU6Taa_u60sKVBq3v5-84">
          <mxGeometry y="86" width="160" height="26" as="geometry" />
        </mxCell>
        <mxCell id="yuEU6Taa_u60sKVBq3v5-89" value="메뉴 수정" style="text;strokeColor=none;fillColor=none;align=left;verticalAlign=top;spacingLeft=4;spacingRight=4;overflow=hidden;rotatable=0;points=[[0,0.5],[1,0.5]];portConstraint=eastwest;" vertex="1" parent="yuEU6Taa_u60sKVBq3v5-84">
          <mxGeometry y="112" width="160" height="26" as="geometry" />
        </mxCell>
        <mxCell id="yuEU6Taa_u60sKVBq3v5-90" value="메뉴 조회" style="text;strokeColor=none;fillColor=none;align=left;verticalAlign=top;spacingLeft=4;spacingRight=4;overflow=hidden;rotatable=0;points=[[0,0.5],[1,0.5]];portConstraint=eastwest;" vertex="1" parent="yuEU6Taa_u60sKVBq3v5-84">
          <mxGeometry y="138" width="160" height="26" as="geometry" />
        </mxCell>
        <mxCell id="yuEU6Taa_u60sKVBq3v5-91" value="매출 현황" style="swimlane;fontStyle=1;align=center;verticalAlign=top;childLayout=stackLayout;horizontal=1;startSize=26;horizontalStack=0;resizeParent=1;resizeParentMax=0;resizeLast=0;collapsible=1;marginBottom=0;" vertex="1" parent="WIyWlLk6GJQsqaUBKTNV-1">
          <mxGeometry x="234" y="828" width="160" height="86" as="geometry" />
        </mxCell>
        <mxCell id="yuEU6Taa_u60sKVBq3v5-92" value="- 판매 내역" style="text;strokeColor=none;fillColor=none;align=left;verticalAlign=top;spacingLeft=4;spacingRight=4;overflow=hidden;rotatable=0;points=[[0,0.5],[1,0.5]];portConstraint=eastwest;" vertex="1" parent="yuEU6Taa_u60sKVBq3v5-91">
          <mxGeometry y="26" width="160" height="26" as="geometry" />
        </mxCell>
        <mxCell id="yuEU6Taa_u60sKVBq3v5-93" value="" style="line;strokeWidth=1;fillColor=none;align=left;verticalAlign=middle;spacingTop=-1;spacingLeft=3;spacingRight=3;rotatable=0;labelPosition=right;points=[];portConstraint=eastwest;" vertex="1" parent="yuEU6Taa_u60sKVBq3v5-91">
          <mxGeometry y="52" width="160" height="8" as="geometry" />
        </mxCell>
        <mxCell id="yuEU6Taa_u60sKVBq3v5-94" value="- 현황 출력" style="text;strokeColor=none;fillColor=none;align=left;verticalAlign=top;spacingLeft=4;spacingRight=4;overflow=hidden;rotatable=0;points=[[0,0.5],[1,0.5]];portConstraint=eastwest;" vertex="1" parent="yuEU6Taa_u60sKVBq3v5-91">
          <mxGeometry y="60" width="160" height="26" as="geometry" />
        </mxCell>
        <mxCell id="yuEU6Taa_u60sKVBq3v5-95" value="" style="endArrow=block;endSize=16;endFill=0;html=1;exitX=0.55;exitY=0;exitDx=0;exitDy=0;exitPerimeter=0;entryX=0.5;entryY=1;entryDx=0;entryDy=0;" edge="1" parent="WIyWlLk6GJQsqaUBKTNV-1" source="yuEU6Taa_u60sKVBq3v5-69" target="yuEU6Taa_u60sKVBq3v5-53">
          <mxGeometry y="50" width="160" relative="1" as="geometry">
            <mxPoint x="328" y="436" as="sourcePoint" />
            <mxPoint x="220" y="300" as="targetPoint" />
            <Array as="points">
              <mxPoint x="328" y="360" />
              <mxPoint x="220" y="360" />
              <mxPoint x="220" y="330" />
            </Array>
            <mxPoint as="offset" />
          </mxGeometry>
        </mxCell>
        <mxCell id="yuEU6Taa_u60sKVBq3v5-124" value="" style="endArrow=block;endSize=16;endFill=0;html=1;" edge="1" parent="WIyWlLk6GJQsqaUBKTNV-1">
          <mxGeometry x="-0.4558" y="-221" width="160" relative="1" as="geometry">
            <mxPoint x="304" y="828" as="sourcePoint" />
            <mxPoint x="234" y="751" as="targetPoint" />
            <Array as="points">
              <mxPoint x="304" y="788" />
              <mxPoint x="234" y="788" />
            </Array>
            <mxPoint x="220" y="201" as="offset" />
          </mxGeometry>
        </mxCell>
        <mxCell id="yuEU6Taa_u60sKVBq3v5-140" value="관리 패키지" style="text;align=center;fontStyle=1;verticalAlign=middle;spacingLeft=3;spacingRight=3;strokeColor=none;rotatable=0;points=[[0,0.5],[1,0.5]];portConstraint=eastwest;" vertex="1" parent="WIyWlLk6GJQsqaUBKTNV-1">
          <mxGeometry x="30" y="578" width="80" height="26" as="geometry" />
        </mxCell>
        <mxCell id="yuEU6Taa_u60sKVBq3v5-148" value="" style="endArrow=none;html=1;edgeStyle=orthogonalEdgeStyle;entryX=-0.019;entryY=0.125;entryDx=0;entryDy=0;entryPerimeter=0;exitX=0.388;exitY=1.133;exitDx=0;exitDy=0;exitPerimeter=0;" edge="1" parent="WIyWlLk6GJQsqaUBKTNV-1" source="yuEU6Taa_u60sKVBq3v5-8" target="yuEU6Taa_u60sKVBq3v5-79">
          <mxGeometry relative="1" as="geometry">
            <mxPoint x="200" y="150" as="sourcePoint" />
            <mxPoint x="10" y="660" as="targetPoint" />
            <Array as="points">
              <mxPoint x="202" y="150" />
              <mxPoint x="-10" y="150" />
              <mxPoint x="-10" y="652" />
            </Array>
          </mxGeometry>
        </mxCell>
        <mxCell id="yuEU6Taa_u60sKVBq3v5-151" value="주문 결제" style="swimlane;fontStyle=1;align=center;verticalAlign=top;childLayout=stackLayout;horizontal=1;startSize=26;horizontalStack=0;resizeParent=1;resizeParentMax=0;resizeLast=0;collapsible=1;marginBottom=0;" vertex="1" parent="WIyWlLk6GJQsqaUBKTNV-1">
          <mxGeometry x="520" y="-60" width="160" height="138" as="geometry" />
        </mxCell>
        <mxCell id="yuEU6Taa_u60sKVBq3v5-155" value="- 주문 번호" style="text;strokeColor=none;fillColor=none;align=left;verticalAlign=top;spacingLeft=4;spacingRight=4;overflow=hidden;rotatable=0;points=[[0,0.5],[1,0.5]];portConstraint=eastwest;" vertex="1" parent="yuEU6Taa_u60sKVBq3v5-151">
          <mxGeometry y="26" width="160" height="26" as="geometry" />
        </mxCell>
        <mxCell id="yuEU6Taa_u60sKVBq3v5-152" value="- 결제 방식" style="text;strokeColor=none;fillColor=none;align=left;verticalAlign=top;spacingLeft=4;spacingRight=4;overflow=hidden;rotatable=0;points=[[0,0.5],[1,0.5]];portConstraint=eastwest;" vertex="1" parent="yuEU6Taa_u60sKVBq3v5-151">
          <mxGeometry y="52" width="160" height="26" as="geometry" />
        </mxCell>
        <mxCell id="yuEU6Taa_u60sKVBq3v5-153" value="" style="line;strokeWidth=1;fillColor=none;align=left;verticalAlign=middle;spacingTop=-1;spacingLeft=3;spacingRight=3;rotatable=0;labelPosition=right;points=[];portConstraint=eastwest;" vertex="1" parent="yuEU6Taa_u60sKVBq3v5-151">
          <mxGeometry y="78" width="160" height="8" as="geometry" />
        </mxCell>
        <mxCell id="yuEU6Taa_u60sKVBq3v5-154" value="메뉴 선택" style="text;strokeColor=none;fillColor=none;align=left;verticalAlign=top;spacingLeft=4;spacingRight=4;overflow=hidden;rotatable=0;points=[[0,0.5],[1,0.5]];portConstraint=eastwest;" vertex="1" parent="yuEU6Taa_u60sKVBq3v5-151">
          <mxGeometry y="86" width="160" height="26" as="geometry" />
        </mxCell>
        <mxCell id="yuEU6Taa_u60sKVBq3v5-160" value="결제" style="text;strokeColor=none;fillColor=none;align=left;verticalAlign=top;spacingLeft=4;spacingRight=4;overflow=hidden;rotatable=0;points=[[0,0.5],[1,0.5]];portConstraint=eastwest;" vertex="1" parent="yuEU6Taa_u60sKVBq3v5-151">
          <mxGeometry y="112" width="160" height="26" as="geometry" />
        </mxCell>
        <mxCell id="yuEU6Taa_u60sKVBq3v5-161" value="카트" style="swimlane;fontStyle=1;align=center;verticalAlign=top;childLayout=stackLayout;horizontal=1;startSize=26;horizontalStack=0;resizeParent=1;resizeParentMax=0;resizeLast=0;collapsible=1;marginBottom=0;" vertex="1" parent="WIyWlLk6GJQsqaUBKTNV-1">
          <mxGeometry x="850" y="160" width="160" height="190" as="geometry" />
        </mxCell>
        <mxCell id="yuEU6Taa_u60sKVBq3v5-162" value="- 메뉴" style="text;strokeColor=none;fillColor=none;align=left;verticalAlign=top;spacingLeft=4;spacingRight=4;overflow=hidden;rotatable=0;points=[[0,0.5],[1,0.5]];portConstraint=eastwest;" vertex="1" parent="yuEU6Taa_u60sKVBq3v5-161">
          <mxGeometry y="26" width="160" height="26" as="geometry" />
        </mxCell>
        <mxCell id="yuEU6Taa_u60sKVBq3v5-170" value="- 총 가격" style="text;strokeColor=none;fillColor=none;align=left;verticalAlign=top;spacingLeft=4;spacingRight=4;overflow=hidden;rotatable=0;points=[[0,0.5],[1,0.5]];portConstraint=eastwest;" vertex="1" parent="yuEU6Taa_u60sKVBq3v5-161">
          <mxGeometry y="52" width="160" height="26" as="geometry" />
        </mxCell>
        <mxCell id="yuEU6Taa_u60sKVBq3v5-163" value="" style="line;strokeWidth=1;fillColor=none;align=left;verticalAlign=middle;spacingTop=-1;spacingLeft=3;spacingRight=3;rotatable=0;labelPosition=right;points=[];portConstraint=eastwest;" vertex="1" parent="yuEU6Taa_u60sKVBq3v5-161">
          <mxGeometry y="78" width="160" height="8" as="geometry" />
        </mxCell>
        <mxCell id="yuEU6Taa_u60sKVBq3v5-164" value="메뉴 수량 +1" style="text;strokeColor=none;fillColor=none;align=left;verticalAlign=top;spacingLeft=4;spacingRight=4;overflow=hidden;rotatable=0;points=[[0,0.5],[1,0.5]];portConstraint=eastwest;" vertex="1" parent="yuEU6Taa_u60sKVBq3v5-161">
          <mxGeometry y="86" width="160" height="26" as="geometry" />
        </mxCell>
        <mxCell id="yuEU6Taa_u60sKVBq3v5-171" value="메뉴 수량 -1" style="text;strokeColor=none;fillColor=none;align=left;verticalAlign=top;spacingLeft=4;spacingRight=4;overflow=hidden;rotatable=0;points=[[0,0.5],[1,0.5]];portConstraint=eastwest;" vertex="1" parent="yuEU6Taa_u60sKVBq3v5-161">
          <mxGeometry y="112" width="160" height="26" as="geometry" />
        </mxCell>
        <mxCell id="yuEU6Taa_u60sKVBq3v5-172" value="메뉴 삭제" style="text;strokeColor=none;fillColor=none;align=left;verticalAlign=top;spacingLeft=4;spacingRight=4;overflow=hidden;rotatable=0;points=[[0,0.5],[1,0.5]];portConstraint=eastwest;" vertex="1" parent="yuEU6Taa_u60sKVBq3v5-161">
          <mxGeometry y="138" width="160" height="26" as="geometry" />
        </mxCell>
        <mxCell id="yuEU6Taa_u60sKVBq3v5-173" value="취소" style="text;strokeColor=none;fillColor=none;align=left;verticalAlign=top;spacingLeft=4;spacingRight=4;overflow=hidden;rotatable=0;points=[[0,0.5],[1,0.5]];portConstraint=eastwest;" vertex="1" parent="yuEU6Taa_u60sKVBq3v5-161">
          <mxGeometry y="164" width="160" height="26" as="geometry" />
        </mxCell>
        <mxCell id="yuEU6Taa_u60sKVBq3v5-165" value="메뉴" style="swimlane;fontStyle=1;align=center;verticalAlign=top;childLayout=stackLayout;horizontal=1;startSize=26;horizontalStack=0;resizeParent=1;resizeParentMax=0;resizeLast=0;collapsible=1;marginBottom=0;" vertex="1" parent="WIyWlLk6GJQsqaUBKTNV-1">
          <mxGeometry x="520" y="630" width="160" height="112" as="geometry" />
        </mxCell>
        <mxCell id="yuEU6Taa_u60sKVBq3v5-166" value="- 메뉴명" style="text;strokeColor=none;fillColor=none;align=left;verticalAlign=top;spacingLeft=4;spacingRight=4;overflow=hidden;rotatable=0;points=[[0,0.5],[1,0.5]];portConstraint=eastwest;" vertex="1" parent="yuEU6Taa_u60sKVBq3v5-165">
          <mxGeometry y="26" width="160" height="26" as="geometry" />
        </mxCell>
        <mxCell id="yuEU6Taa_u60sKVBq3v5-169" value="- 가격" style="text;strokeColor=none;fillColor=none;align=left;verticalAlign=top;spacingLeft=4;spacingRight=4;overflow=hidden;rotatable=0;points=[[0,0.5],[1,0.5]];portConstraint=eastwest;" vertex="1" parent="yuEU6Taa_u60sKVBq3v5-165">
          <mxGeometry y="52" width="160" height="26" as="geometry" />
        </mxCell>
        <mxCell id="yuEU6Taa_u60sKVBq3v5-167" value="" style="line;strokeWidth=1;fillColor=none;align=left;verticalAlign=middle;spacingTop=-1;spacingLeft=3;spacingRight=3;rotatable=0;labelPosition=right;points=[];portConstraint=eastwest;" vertex="1" parent="yuEU6Taa_u60sKVBq3v5-165">
          <mxGeometry y="78" width="160" height="8" as="geometry" />
        </mxCell>
        <mxCell id="yuEU6Taa_u60sKVBq3v5-168" value="카트에 추가" style="text;strokeColor=none;fillColor=none;align=left;verticalAlign=top;spacingLeft=4;spacingRight=4;overflow=hidden;rotatable=0;points=[[0,0.5],[1,0.5]];portConstraint=eastwest;" vertex="1" parent="yuEU6Taa_u60sKVBq3v5-165">
          <mxGeometry y="86" width="160" height="26" as="geometry" />
        </mxCell>
        <mxCell id="yuEU6Taa_u60sKVBq3v5-174" value="결제 카드" style="swimlane;fontStyle=1;align=center;verticalAlign=top;childLayout=stackLayout;horizontal=1;startSize=26;horizontalStack=0;resizeParent=1;resizeParentMax=0;resizeLast=0;collapsible=1;marginBottom=0;" vertex="1" parent="WIyWlLk6GJQsqaUBKTNV-1">
          <mxGeometry x="1260" y="160" width="160" height="112" as="geometry" />
        </mxCell>
        <mxCell id="yuEU6Taa_u60sKVBq3v5-175" value="- 결제 수단" style="text;strokeColor=none;fillColor=none;align=left;verticalAlign=top;spacingLeft=4;spacingRight=4;overflow=hidden;rotatable=0;points=[[0,0.5],[1,0.5]];portConstraint=eastwest;" vertex="1" parent="yuEU6Taa_u60sKVBq3v5-174">
          <mxGeometry y="26" width="160" height="26" as="geometry" />
        </mxCell>
        <mxCell id="yuEU6Taa_u60sKVBq3v5-178" value="- 가격" style="text;strokeColor=none;fillColor=none;align=left;verticalAlign=top;spacingLeft=4;spacingRight=4;overflow=hidden;rotatable=0;points=[[0,0.5],[1,0.5]];portConstraint=eastwest;" vertex="1" parent="yuEU6Taa_u60sKVBq3v5-174">
          <mxGeometry y="52" width="160" height="26" as="geometry" />
        </mxCell>
        <mxCell id="yuEU6Taa_u60sKVBq3v5-176" value="" style="line;strokeWidth=1;fillColor=none;align=left;verticalAlign=middle;spacingTop=-1;spacingLeft=3;spacingRight=3;rotatable=0;labelPosition=right;points=[];portConstraint=eastwest;" vertex="1" parent="yuEU6Taa_u60sKVBq3v5-174">
          <mxGeometry y="78" width="160" height="8" as="geometry" />
        </mxCell>
        <mxCell id="yuEU6Taa_u60sKVBq3v5-177" value="-" style="text;strokeColor=none;fillColor=none;align=left;verticalAlign=top;spacingLeft=4;spacingRight=4;overflow=hidden;rotatable=0;points=[[0,0.5],[1,0.5]];portConstraint=eastwest;" vertex="1" parent="yuEU6Taa_u60sKVBq3v5-174">
          <mxGeometry y="86" width="160" height="26" as="geometry" />
        </mxCell>
        <mxCell id="yuEU6Taa_u60sKVBq3v5-179" value="서브카드" style="swimlane;fontStyle=1;align=center;verticalAlign=top;childLayout=stackLayout;horizontal=1;startSize=26;horizontalStack=0;resizeParent=1;resizeParentMax=0;resizeLast=0;collapsible=1;marginBottom=0;" vertex="1" parent="WIyWlLk6GJQsqaUBKTNV-1">
          <mxGeometry x="1150" y="331" width="160" height="86" as="geometry" />
        </mxCell>
        <mxCell id="yuEU6Taa_u60sKVBq3v5-180" value="-" style="text;strokeColor=none;fillColor=none;align=left;verticalAlign=top;spacingLeft=4;spacingRight=4;overflow=hidden;rotatable=0;points=[[0,0.5],[1,0.5]];portConstraint=eastwest;" vertex="1" parent="yuEU6Taa_u60sKVBq3v5-179">
          <mxGeometry y="26" width="160" height="26" as="geometry" />
        </mxCell>
        <mxCell id="yuEU6Taa_u60sKVBq3v5-181" value="" style="line;strokeWidth=1;fillColor=none;align=left;verticalAlign=middle;spacingTop=-1;spacingLeft=3;spacingRight=3;rotatable=0;labelPosition=right;points=[];portConstraint=eastwest;" vertex="1" parent="yuEU6Taa_u60sKVBq3v5-179">
          <mxGeometry y="52" width="160" height="8" as="geometry" />
        </mxCell>
        <mxCell id="yuEU6Taa_u60sKVBq3v5-182" value="-" style="text;strokeColor=none;fillColor=none;align=left;verticalAlign=top;spacingLeft=4;spacingRight=4;overflow=hidden;rotatable=0;points=[[0,0.5],[1,0.5]];portConstraint=eastwest;" vertex="1" parent="yuEU6Taa_u60sKVBq3v5-179">
          <mxGeometry y="60" width="160" height="26" as="geometry" />
        </mxCell>
        <mxCell id="yuEU6Taa_u60sKVBq3v5-183" value="일반카드" style="swimlane;fontStyle=1;align=center;verticalAlign=top;childLayout=stackLayout;horizontal=1;startSize=26;horizontalStack=0;resizeParent=1;resizeParentMax=0;resizeLast=0;collapsible=1;marginBottom=0;" vertex="1" parent="WIyWlLk6GJQsqaUBKTNV-1">
          <mxGeometry x="1420" y="331" width="160" height="86" as="geometry" />
        </mxCell>
        <mxCell id="yuEU6Taa_u60sKVBq3v5-184" value="-" style="text;strokeColor=none;fillColor=none;align=left;verticalAlign=top;spacingLeft=4;spacingRight=4;overflow=hidden;rotatable=0;points=[[0,0.5],[1,0.5]];portConstraint=eastwest;" vertex="1" parent="yuEU6Taa_u60sKVBq3v5-183">
          <mxGeometry y="26" width="160" height="26" as="geometry" />
        </mxCell>
        <mxCell id="yuEU6Taa_u60sKVBq3v5-185" value="" style="line;strokeWidth=1;fillColor=none;align=left;verticalAlign=middle;spacingTop=-1;spacingLeft=3;spacingRight=3;rotatable=0;labelPosition=right;points=[];portConstraint=eastwest;" vertex="1" parent="yuEU6Taa_u60sKVBq3v5-183">
          <mxGeometry y="52" width="160" height="8" as="geometry" />
        </mxCell>
        <mxCell id="yuEU6Taa_u60sKVBq3v5-186" value="-" style="text;strokeColor=none;fillColor=none;align=left;verticalAlign=top;spacingLeft=4;spacingRight=4;overflow=hidden;rotatable=0;points=[[0,0.5],[1,0.5]];portConstraint=eastwest;" vertex="1" parent="yuEU6Taa_u60sKVBq3v5-183">
          <mxGeometry y="60" width="160" height="26" as="geometry" />
        </mxCell>
        <mxCell id="yuEU6Taa_u60sKVBq3v5-187" value="" style="endArrow=block;endSize=16;endFill=0;html=1;entryX=0.494;entryY=1.154;entryDx=0;entryDy=0;entryPerimeter=0;exitX=0.5;exitY=0;exitDx=0;exitDy=0;" edge="1" parent="WIyWlLk6GJQsqaUBKTNV-1" source="yuEU6Taa_u60sKVBq3v5-179" target="yuEU6Taa_u60sKVBq3v5-177">
          <mxGeometry width="160" relative="1" as="geometry">
            <mxPoint x="1230" y="400" as="sourcePoint" />
            <mxPoint x="1390" y="400" as="targetPoint" />
          </mxGeometry>
        </mxCell>
        <mxCell id="yuEU6Taa_u60sKVBq3v5-188" value="" style="endArrow=block;endSize=16;endFill=0;html=1;entryX=0.625;entryY=1.115;entryDx=0;entryDy=0;entryPerimeter=0;exitX=0.544;exitY=0;exitDx=0;exitDy=0;exitPerimeter=0;" edge="1" parent="WIyWlLk6GJQsqaUBKTNV-1" source="yuEU6Taa_u60sKVBq3v5-183" target="yuEU6Taa_u60sKVBq3v5-177">
          <mxGeometry width="160" relative="1" as="geometry">
            <mxPoint x="1420" y="370" as="sourcePoint" />
            <mxPoint x="1580" y="370" as="targetPoint" />
          </mxGeometry>
        </mxCell>
        <mxCell id="yuEU6Taa_u60sKVBq3v5-189" value="포인트" style="swimlane;fontStyle=1;align=center;verticalAlign=top;childLayout=stackLayout;horizontal=1;startSize=26;horizontalStack=0;resizeParent=1;resizeParentMax=0;resizeLast=0;collapsible=1;marginBottom=0;" vertex="1" parent="WIyWlLk6GJQsqaUBKTNV-1">
          <mxGeometry x="1161" y="473" width="160" height="112" as="geometry" />
        </mxCell>
        <mxCell id="yuEU6Taa_u60sKVBq3v5-190" value="-" style="text;strokeColor=none;fillColor=none;align=left;verticalAlign=top;spacingLeft=4;spacingRight=4;overflow=hidden;rotatable=0;points=[[0,0.5],[1,0.5]];portConstraint=eastwest;" vertex="1" parent="yuEU6Taa_u60sKVBq3v5-189">
          <mxGeometry y="26" width="160" height="26" as="geometry" />
        </mxCell>
        <mxCell id="yuEU6Taa_u60sKVBq3v5-191" value="" style="line;strokeWidth=1;fillColor=none;align=left;verticalAlign=middle;spacingTop=-1;spacingLeft=3;spacingRight=3;rotatable=0;labelPosition=right;points=[];portConstraint=eastwest;" vertex="1" parent="yuEU6Taa_u60sKVBq3v5-189">
          <mxGeometry y="52" width="160" height="8" as="geometry" />
        </mxCell>
        <mxCell id="yuEU6Taa_u60sKVBq3v5-192" value="포인트 적립" style="text;strokeColor=none;fillColor=none;align=left;verticalAlign=top;spacingLeft=4;spacingRight=4;overflow=hidden;rotatable=0;points=[[0,0.5],[1,0.5]];portConstraint=eastwest;" vertex="1" parent="yuEU6Taa_u60sKVBq3v5-189">
          <mxGeometry y="60" width="160" height="26" as="geometry" />
        </mxCell>
        <mxCell id="yuEU6Taa_u60sKVBq3v5-193" value="포인트 사용" style="text;strokeColor=none;fillColor=none;align=left;verticalAlign=top;spacingLeft=4;spacingRight=4;overflow=hidden;rotatable=0;points=[[0,0.5],[1,0.5]];portConstraint=eastwest;" vertex="1" parent="yuEU6Taa_u60sKVBq3v5-189">
          <mxGeometry y="86" width="160" height="26" as="geometry" />
        </mxCell>
        <mxCell id="yuEU6Taa_u60sKVBq3v5-194" value="" style="endArrow=diamondThin;endFill=1;endSize=24;html=1;entryX=0.5;entryY=0;entryDx=0;entryDy=0;exitX=0.575;exitY=1.077;exitDx=0;exitDy=0;exitPerimeter=0;" edge="1" parent="WIyWlLk6GJQsqaUBKTNV-1" source="yuEU6Taa_u60sKVBq3v5-182" target="yuEU6Taa_u60sKVBq3v5-189">
          <mxGeometry width="160" relative="1" as="geometry">
            <mxPoint x="1060" y="475" as="sourcePoint" />
            <mxPoint x="1220" y="475" as="targetPoint" />
          </mxGeometry>
        </mxCell>
        <mxCell id="yuEU6Taa_u60sKVBq3v5-195" value="" style="endArrow=none;html=1;edgeStyle=orthogonalEdgeStyle;exitX=0.8;exitY=1.115;exitDx=0;exitDy=0;exitPerimeter=0;entryX=0.569;entryY=1.038;entryDx=0;entryDy=0;entryPerimeter=0;" edge="1" parent="WIyWlLk6GJQsqaUBKTNV-1" source="yuEU6Taa_u60sKVBq3v5-160" target="yuEU6Taa_u60sKVBq3v5-193">
          <mxGeometry relative="1" as="geometry">
            <mxPoint x="640" y="300" as="sourcePoint" />
            <mxPoint x="740" y="400" as="targetPoint" />
            <Array as="points">
              <mxPoint x="648" y="110" />
              <mxPoint x="740" y="110" />
              <mxPoint x="740" y="610" />
              <mxPoint x="1252" y="610" />
            </Array>
          </mxGeometry>
        </mxCell>
        <mxCell id="yuEU6Taa_u60sKVBq3v5-198" value="" style="endArrow=none;html=1;edgeStyle=orthogonalEdgeStyle;entryX=0.5;entryY=0;entryDx=0;entryDy=0;" edge="1" parent="WIyWlLk6GJQsqaUBKTNV-1" target="yuEU6Taa_u60sKVBq3v5-165">
          <mxGeometry relative="1" as="geometry">
            <mxPoint x="600" y="80" as="sourcePoint" />
            <mxPoint x="620" y="120" as="targetPoint" />
            <Array as="points">
              <mxPoint x="600" y="119" />
            </Array>
          </mxGeometry>
        </mxCell>
        <mxCell id="yuEU6Taa_u60sKVBq3v5-201" value="" style="endArrow=none;html=1;edgeStyle=orthogonalEdgeStyle;entryX=0.5;entryY=0;entryDx=0;entryDy=0;exitX=0.619;exitY=1.154;exitDx=0;exitDy=0;exitPerimeter=0;" edge="1" parent="WIyWlLk6GJQsqaUBKTNV-1" source="yuEU6Taa_u60sKVBq3v5-160" target="yuEU6Taa_u60sKVBq3v5-161">
          <mxGeometry relative="1" as="geometry">
            <mxPoint x="618" y="190" as="sourcePoint" />
            <mxPoint x="1000" y="110" as="targetPoint" />
            <Array as="points">
              <mxPoint x="618" y="82" />
              <mxPoint x="618" y="120" />
              <mxPoint x="930" y="120" />
            </Array>
          </mxGeometry>
        </mxCell>
        <mxCell id="yuEU6Taa_u60sKVBq3v5-204" value="" style="endArrow=none;html=1;edgeStyle=orthogonalEdgeStyle;exitX=0.281;exitY=1.115;exitDx=0;exitDy=0;exitPerimeter=0;entryX=0.556;entryY=-0.045;entryDx=0;entryDy=0;entryPerimeter=0;" edge="1" parent="WIyWlLk6GJQsqaUBKTNV-1" source="yuEU6Taa_u60sKVBq3v5-160" target="yuEU6Taa_u60sKVBq3v5-174">
          <mxGeometry relative="1" as="geometry">
            <mxPoint x="810" y="100" as="sourcePoint" />
            <mxPoint x="970" y="100" as="targetPoint" />
            <Array as="points">
              <mxPoint x="565" y="100" />
              <mxPoint x="1349" y="100" />
            </Array>
          </mxGeometry>
        </mxCell>
        <mxCell id="yuEU6Taa_u60sKVBq3v5-207" value="" style="endArrow=none;html=1;edgeStyle=orthogonalEdgeStyle;exitX=0.394;exitY=1.077;exitDx=0;exitDy=0;exitPerimeter=0;entryX=0.094;entryY=1.115;entryDx=0;entryDy=0;entryPerimeter=0;" edge="1" parent="WIyWlLk6GJQsqaUBKTNV-1" source="yuEU6Taa_u60sKVBq3v5-90" target="yuEU6Taa_u60sKVBq3v5-168">
          <mxGeometry relative="1" as="geometry">
            <mxPoint x="140" y="1050" as="sourcePoint" />
            <mxPoint x="530" y="850" as="targetPoint" />
            <Array as="points">
              <mxPoint x="107" y="1060" />
              <mxPoint x="535" y="1060" />
            </Array>
          </mxGeometry>
        </mxCell>
        <mxCell id="yuEU6Taa_u60sKVBq3v5-210" value="" style="endArrow=none;html=1;edgeStyle=orthogonalEdgeStyle;exitX=0.488;exitY=0.962;exitDx=0;exitDy=0;exitPerimeter=0;entryX=0.369;entryY=1.077;entryDx=0;entryDy=0;entryPerimeter=0;" edge="1" parent="WIyWlLk6GJQsqaUBKTNV-1" source="yuEU6Taa_u60sKVBq3v5-94" target="yuEU6Taa_u60sKVBq3v5-160">
          <mxGeometry relative="1" as="geometry">
            <mxPoint x="340" y="1040" as="sourcePoint" />
            <mxPoint x="470" y="110" as="targetPoint" />
            <Array as="points">
              <mxPoint x="312" y="1040" />
              <mxPoint x="480" y="1040" />
              <mxPoint x="480" y="120" />
              <mxPoint x="579" y="120" />
            </Array>
          </mxGeometry>
        </mxCell>
        <mxCell id="yuEU6Taa_u60sKVBq3v5-213" value="샌드위치" style="swimlane;fontStyle=1;align=center;verticalAlign=top;childLayout=stackLayout;horizontal=1;startSize=26;horizontalStack=0;resizeParent=1;resizeParentMax=0;resizeLast=0;collapsible=1;marginBottom=0;" vertex="1" parent="WIyWlLk6GJQsqaUBKTNV-1">
          <mxGeometry x="630" y="790" width="160" height="112" as="geometry" />
        </mxCell>
        <mxCell id="yuEU6Taa_u60sKVBq3v5-214" value="- 이름" style="text;strokeColor=none;fillColor=none;align=left;verticalAlign=top;spacingLeft=4;spacingRight=4;overflow=hidden;rotatable=0;points=[[0,0.5],[1,0.5]];portConstraint=eastwest;" vertex="1" parent="yuEU6Taa_u60sKVBq3v5-213">
          <mxGeometry y="26" width="160" height="26" as="geometry" />
        </mxCell>
        <mxCell id="yuEU6Taa_u60sKVBq3v5-229" value="- 가격" style="text;strokeColor=none;fillColor=none;align=left;verticalAlign=top;spacingLeft=4;spacingRight=4;overflow=hidden;rotatable=0;points=[[0,0.5],[1,0.5]];portConstraint=eastwest;" vertex="1" parent="yuEU6Taa_u60sKVBq3v5-213">
          <mxGeometry y="52" width="160" height="26" as="geometry" />
        </mxCell>
        <mxCell id="yuEU6Taa_u60sKVBq3v5-215" value="" style="line;strokeWidth=1;fillColor=none;align=left;verticalAlign=middle;spacingTop=-1;spacingLeft=3;spacingRight=3;rotatable=0;labelPosition=right;points=[];portConstraint=eastwest;" vertex="1" parent="yuEU6Taa_u60sKVBq3v5-213">
          <mxGeometry y="78" width="160" height="8" as="geometry" />
        </mxCell>
        <mxCell id="yuEU6Taa_u60sKVBq3v5-216" value="-" style="text;strokeColor=none;fillColor=none;align=left;verticalAlign=top;spacingLeft=4;spacingRight=4;overflow=hidden;rotatable=0;points=[[0,0.5],[1,0.5]];portConstraint=eastwest;" vertex="1" parent="yuEU6Taa_u60sKVBq3v5-213">
          <mxGeometry y="86" width="160" height="26" as="geometry" />
        </mxCell>
        <mxCell id="yuEU6Taa_u60sKVBq3v5-217" value="찹샐러드" style="swimlane;fontStyle=1;align=center;verticalAlign=top;childLayout=stackLayout;horizontal=1;startSize=26;horizontalStack=0;resizeParent=1;resizeParentMax=0;resizeLast=0;collapsible=1;marginBottom=0;" vertex="1" parent="WIyWlLk6GJQsqaUBKTNV-1">
          <mxGeometry x="827" y="790" width="160" height="112" as="geometry" />
        </mxCell>
        <mxCell id="yuEU6Taa_u60sKVBq3v5-218" value="- 이름" style="text;strokeColor=none;fillColor=none;align=left;verticalAlign=top;spacingLeft=4;spacingRight=4;overflow=hidden;rotatable=0;points=[[0,0.5],[1,0.5]];portConstraint=eastwest;" vertex="1" parent="yuEU6Taa_u60sKVBq3v5-217">
          <mxGeometry y="26" width="160" height="26" as="geometry" />
        </mxCell>
        <mxCell id="yuEU6Taa_u60sKVBq3v5-230" value="- 가격" style="text;strokeColor=none;fillColor=none;align=left;verticalAlign=top;spacingLeft=4;spacingRight=4;overflow=hidden;rotatable=0;points=[[0,0.5],[1,0.5]];portConstraint=eastwest;" vertex="1" parent="yuEU6Taa_u60sKVBq3v5-217">
          <mxGeometry y="52" width="160" height="26" as="geometry" />
        </mxCell>
        <mxCell id="yuEU6Taa_u60sKVBq3v5-219" value="" style="line;strokeWidth=1;fillColor=none;align=left;verticalAlign=middle;spacingTop=-1;spacingLeft=3;spacingRight=3;rotatable=0;labelPosition=right;points=[];portConstraint=eastwest;" vertex="1" parent="yuEU6Taa_u60sKVBq3v5-217">
          <mxGeometry y="78" width="160" height="8" as="geometry" />
        </mxCell>
        <mxCell id="yuEU6Taa_u60sKVBq3v5-220" value="-" style="text;strokeColor=none;fillColor=none;align=left;verticalAlign=top;spacingLeft=4;spacingRight=4;overflow=hidden;rotatable=0;points=[[0,0.5],[1,0.5]];portConstraint=eastwest;" vertex="1" parent="yuEU6Taa_u60sKVBq3v5-217">
          <mxGeometry y="86" width="160" height="26" as="geometry" />
        </mxCell>
        <mxCell id="yuEU6Taa_u60sKVBq3v5-221" value="랩" style="swimlane;fontStyle=1;align=center;verticalAlign=top;childLayout=stackLayout;horizontal=1;startSize=26;horizontalStack=0;resizeParent=1;resizeParentMax=0;resizeLast=0;collapsible=1;marginBottom=0;" vertex="1" parent="WIyWlLk6GJQsqaUBKTNV-1">
          <mxGeometry x="1040" y="790" width="160" height="112" as="geometry" />
        </mxCell>
        <mxCell id="yuEU6Taa_u60sKVBq3v5-231" value="- 이름" style="text;strokeColor=none;fillColor=none;align=left;verticalAlign=top;spacingLeft=4;spacingRight=4;overflow=hidden;rotatable=0;points=[[0,0.5],[1,0.5]];portConstraint=eastwest;" vertex="1" parent="yuEU6Taa_u60sKVBq3v5-221">
          <mxGeometry y="26" width="160" height="26" as="geometry" />
        </mxCell>
        <mxCell id="yuEU6Taa_u60sKVBq3v5-222" value="- 가격" style="text;strokeColor=none;fillColor=none;align=left;verticalAlign=top;spacingLeft=4;spacingRight=4;overflow=hidden;rotatable=0;points=[[0,0.5],[1,0.5]];portConstraint=eastwest;" vertex="1" parent="yuEU6Taa_u60sKVBq3v5-221">
          <mxGeometry y="52" width="160" height="26" as="geometry" />
        </mxCell>
        <mxCell id="yuEU6Taa_u60sKVBq3v5-223" value="" style="line;strokeWidth=1;fillColor=none;align=left;verticalAlign=middle;spacingTop=-1;spacingLeft=3;spacingRight=3;rotatable=0;labelPosition=right;points=[];portConstraint=eastwest;" vertex="1" parent="yuEU6Taa_u60sKVBq3v5-221">
          <mxGeometry y="78" width="160" height="8" as="geometry" />
        </mxCell>
        <mxCell id="yuEU6Taa_u60sKVBq3v5-224" value="-" style="text;strokeColor=none;fillColor=none;align=left;verticalAlign=top;spacingLeft=4;spacingRight=4;overflow=hidden;rotatable=0;points=[[0,0.5],[1,0.5]];portConstraint=eastwest;" vertex="1" parent="yuEU6Taa_u60sKVBq3v5-221">
          <mxGeometry y="86" width="160" height="26" as="geometry" />
        </mxCell>
        <mxCell id="yuEU6Taa_u60sKVBq3v5-225" value="음료 사이드" style="swimlane;fontStyle=1;align=center;verticalAlign=top;childLayout=stackLayout;horizontal=1;startSize=26;horizontalStack=0;resizeParent=1;resizeParentMax=0;resizeLast=0;collapsible=1;marginBottom=0;" vertex="1" parent="WIyWlLk6GJQsqaUBKTNV-1">
          <mxGeometry x="1250" y="790" width="160" height="112" as="geometry" />
        </mxCell>
        <mxCell id="yuEU6Taa_u60sKVBq3v5-226" value="- 이름" style="text;strokeColor=none;fillColor=none;align=left;verticalAlign=top;spacingLeft=4;spacingRight=4;overflow=hidden;rotatable=0;points=[[0,0.5],[1,0.5]];portConstraint=eastwest;" vertex="1" parent="yuEU6Taa_u60sKVBq3v5-225">
          <mxGeometry y="26" width="160" height="26" as="geometry" />
        </mxCell>
        <mxCell id="yuEU6Taa_u60sKVBq3v5-232" value="- 가격" style="text;strokeColor=none;fillColor=none;align=left;verticalAlign=top;spacingLeft=4;spacingRight=4;overflow=hidden;rotatable=0;points=[[0,0.5],[1,0.5]];portConstraint=eastwest;" vertex="1" parent="yuEU6Taa_u60sKVBq3v5-225">
          <mxGeometry y="52" width="160" height="26" as="geometry" />
        </mxCell>
        <mxCell id="yuEU6Taa_u60sKVBq3v5-227" value="" style="line;strokeWidth=1;fillColor=none;align=left;verticalAlign=middle;spacingTop=-1;spacingLeft=3;spacingRight=3;rotatable=0;labelPosition=right;points=[];portConstraint=eastwest;" vertex="1" parent="yuEU6Taa_u60sKVBq3v5-225">
          <mxGeometry y="78" width="160" height="8" as="geometry" />
        </mxCell>
        <mxCell id="yuEU6Taa_u60sKVBq3v5-228" value="-" style="text;strokeColor=none;fillColor=none;align=left;verticalAlign=top;spacingLeft=4;spacingRight=4;overflow=hidden;rotatable=0;points=[[0,0.5],[1,0.5]];portConstraint=eastwest;" vertex="1" parent="yuEU6Taa_u60sKVBq3v5-225">
          <mxGeometry y="86" width="160" height="26" as="geometry" />
        </mxCell>
        <mxCell id="yuEU6Taa_u60sKVBq3v5-234" value="" style="endArrow=block;endSize=16;endFill=0;html=1;entryX=0.344;entryY=1.192;entryDx=0;entryDy=0;entryPerimeter=0;exitX=0.375;exitY=-0.009;exitDx=0;exitDy=0;exitPerimeter=0;" edge="1" parent="WIyWlLk6GJQsqaUBKTNV-1" source="yuEU6Taa_u60sKVBq3v5-213" target="yuEU6Taa_u60sKVBq3v5-168">
          <mxGeometry width="160" relative="1" as="geometry">
            <mxPoint x="670" y="760" as="sourcePoint" />
            <mxPoint x="830" y="760" as="targetPoint" />
          </mxGeometry>
        </mxCell>
        <mxCell id="yuEU6Taa_u60sKVBq3v5-235" value="" style="endArrow=block;endSize=16;endFill=0;html=1;entryX=0.631;entryY=1;entryDx=0;entryDy=0;entryPerimeter=0;exitX=0.463;exitY=-0.009;exitDx=0;exitDy=0;exitPerimeter=0;" edge="1" parent="WIyWlLk6GJQsqaUBKTNV-1" source="yuEU6Taa_u60sKVBq3v5-217" target="yuEU6Taa_u60sKVBq3v5-168">
          <mxGeometry width="160" relative="1" as="geometry">
            <mxPoint x="740" y="730" as="sourcePoint" />
            <mxPoint x="900" y="730" as="targetPoint" />
          </mxGeometry>
        </mxCell>
        <mxCell id="yuEU6Taa_u60sKVBq3v5-236" value="" style="endArrow=block;endSize=16;endFill=0;html=1;entryX=0.838;entryY=1.192;entryDx=0;entryDy=0;entryPerimeter=0;exitX=0.563;exitY=-0.009;exitDx=0;exitDy=0;exitPerimeter=0;" edge="1" parent="WIyWlLk6GJQsqaUBKTNV-1" source="yuEU6Taa_u60sKVBq3v5-221" target="yuEU6Taa_u60sKVBq3v5-168">
          <mxGeometry width="160" relative="1" as="geometry">
            <mxPoint x="910" y="730" as="sourcePoint" />
            <mxPoint x="1070" y="730" as="targetPoint" />
          </mxGeometry>
        </mxCell>
        <mxCell id="yuEU6Taa_u60sKVBq3v5-243" value="" style="endArrow=block;endSize=16;endFill=0;html=1;entryX=0.875;entryY=0.923;entryDx=0;entryDy=0;entryPerimeter=0;exitX=0.5;exitY=0;exitDx=0;exitDy=0;" edge="1" parent="WIyWlLk6GJQsqaUBKTNV-1" source="yuEU6Taa_u60sKVBq3v5-225" target="yuEU6Taa_u60sKVBq3v5-168">
          <mxGeometry width="160" relative="1" as="geometry">
            <mxPoint x="1120" y="730" as="sourcePoint" />
            <mxPoint x="1280" y="730" as="targetPoint" />
          </mxGeometry>
        </mxCell>
        <mxCell id="yuEU6Taa_u60sKVBq3v5-244" value="빵" style="swimlane;fontStyle=1;align=center;verticalAlign=top;childLayout=stackLayout;horizontal=1;startSize=26;horizontalStack=0;resizeParent=1;resizeParentMax=0;resizeLast=0;collapsible=1;marginBottom=0;" vertex="1" parent="WIyWlLk6GJQsqaUBKTNV-1">
          <mxGeometry x="630" y="966" width="160" height="112" as="geometry" />
        </mxCell>
        <mxCell id="yuEU6Taa_u60sKVBq3v5-245" value="- 이름" style="text;strokeColor=none;fillColor=none;align=left;verticalAlign=top;spacingLeft=4;spacingRight=4;overflow=hidden;rotatable=0;points=[[0,0.5],[1,0.5]];portConstraint=eastwest;" vertex="1" parent="yuEU6Taa_u60sKVBq3v5-244">
          <mxGeometry y="26" width="160" height="26" as="geometry" />
        </mxCell>
        <mxCell id="yuEU6Taa_u60sKVBq3v5-248" value="- 길이" style="text;strokeColor=none;fillColor=none;align=left;verticalAlign=top;spacingLeft=4;spacingRight=4;overflow=hidden;rotatable=0;points=[[0,0.5],[1,0.5]];portConstraint=eastwest;" vertex="1" parent="yuEU6Taa_u60sKVBq3v5-244">
          <mxGeometry y="52" width="160" height="26" as="geometry" />
        </mxCell>
        <mxCell id="yuEU6Taa_u60sKVBq3v5-246" value="" style="line;strokeWidth=1;fillColor=none;align=left;verticalAlign=middle;spacingTop=-1;spacingLeft=3;spacingRight=3;rotatable=0;labelPosition=right;points=[];portConstraint=eastwest;" vertex="1" parent="yuEU6Taa_u60sKVBq3v5-244">
          <mxGeometry y="78" width="160" height="8" as="geometry" />
        </mxCell>
        <mxCell id="yuEU6Taa_u60sKVBq3v5-247" value="-" style="text;strokeColor=none;fillColor=none;align=left;verticalAlign=top;spacingLeft=4;spacingRight=4;overflow=hidden;rotatable=0;points=[[0,0.5],[1,0.5]];portConstraint=eastwest;" vertex="1" parent="yuEU6Taa_u60sKVBq3v5-244">
          <mxGeometry y="86" width="160" height="26" as="geometry" />
        </mxCell>
        <mxCell id="yuEU6Taa_u60sKVBq3v5-249" value="" style="endArrow=block;endSize=16;endFill=0;html=1;entryX=0.531;entryY=1;entryDx=0;entryDy=0;entryPerimeter=0;exitX=0.544;exitY=0.018;exitDx=0;exitDy=0;exitPerimeter=0;" edge="1" parent="WIyWlLk6GJQsqaUBKTNV-1" source="yuEU6Taa_u60sKVBq3v5-244" target="yuEU6Taa_u60sKVBq3v5-216">
          <mxGeometry width="160" relative="1" as="geometry">
            <mxPoint x="715" y="960" as="sourcePoint" />
            <mxPoint x="800" y="930" as="targetPoint" />
          </mxGeometry>
        </mxCell>
        <mxCell id="yuEU6Taa_u60sKVBq3v5-250" value="subMenu" style="swimlane;fontStyle=1;align=center;verticalAlign=top;childLayout=stackLayout;horizontal=1;startSize=26;horizontalStack=0;resizeParent=1;resizeParentMax=0;resizeLast=0;collapsible=1;marginBottom=0;" vertex="1" parent="WIyWlLk6GJQsqaUBKTNV-1">
          <mxGeometry x="827" y="966" width="160" height="86" as="geometry" />
        </mxCell>
        <mxCell id="yuEU6Taa_u60sKVBq3v5-251" value="-" style="text;strokeColor=none;fillColor=none;align=left;verticalAlign=top;spacingLeft=4;spacingRight=4;overflow=hidden;rotatable=0;points=[[0,0.5],[1,0.5]];portConstraint=eastwest;" vertex="1" parent="yuEU6Taa_u60sKVBq3v5-250">
          <mxGeometry y="26" width="160" height="26" as="geometry" />
        </mxCell>
        <mxCell id="yuEU6Taa_u60sKVBq3v5-252" value="" style="line;strokeWidth=1;fillColor=none;align=left;verticalAlign=middle;spacingTop=-1;spacingLeft=3;spacingRight=3;rotatable=0;labelPosition=right;points=[];portConstraint=eastwest;" vertex="1" parent="yuEU6Taa_u60sKVBq3v5-250">
          <mxGeometry y="52" width="160" height="8" as="geometry" />
        </mxCell>
        <mxCell id="yuEU6Taa_u60sKVBq3v5-253" value="-" style="text;strokeColor=none;fillColor=none;align=left;verticalAlign=top;spacingLeft=4;spacingRight=4;overflow=hidden;rotatable=0;points=[[0,0.5],[1,0.5]];portConstraint=eastwest;" vertex="1" parent="yuEU6Taa_u60sKVBq3v5-250">
          <mxGeometry y="60" width="160" height="26" as="geometry" />
        </mxCell>
        <mxCell id="yuEU6Taa_u60sKVBq3v5-254" value="" style="endArrow=block;endSize=16;endFill=0;html=1;entryX=0.638;entryY=1.115;entryDx=0;entryDy=0;entryPerimeter=0;exitX=0.394;exitY=0;exitDx=0;exitDy=0;exitPerimeter=0;" edge="1" parent="WIyWlLk6GJQsqaUBKTNV-1" source="yuEU6Taa_u60sKVBq3v5-250" target="yuEU6Taa_u60sKVBq3v5-216">
          <mxGeometry width="160" relative="1" as="geometry">
            <mxPoint x="810" y="940" as="sourcePoint" />
            <mxPoint x="970" y="940" as="targetPoint" />
          </mxGeometry>
        </mxCell>
        <mxCell id="yuEU6Taa_u60sKVBq3v5-255" value="" style="endArrow=block;endSize=16;endFill=0;html=1;entryX=0.569;entryY=1.115;entryDx=0;entryDy=0;entryPerimeter=0;exitX=0.581;exitY=0.012;exitDx=0;exitDy=0;exitPerimeter=0;" edge="1" parent="WIyWlLk6GJQsqaUBKTNV-1" source="yuEU6Taa_u60sKVBq3v5-250" target="yuEU6Taa_u60sKVBq3v5-220">
          <mxGeometry width="160" relative="1" as="geometry">
            <mxPoint x="890" y="940" as="sourcePoint" />
            <mxPoint x="1050" y="940" as="targetPoint" />
          </mxGeometry>
        </mxCell>
        <mxCell id="yuEU6Taa_u60sKVBq3v5-256" value="토핑" style="swimlane;fontStyle=1;align=center;verticalAlign=top;childLayout=stackLayout;horizontal=1;startSize=26;horizontalStack=0;resizeParent=1;resizeParentMax=0;resizeLast=0;collapsible=1;marginBottom=0;" vertex="1" parent="WIyWlLk6GJQsqaUBKTNV-1">
          <mxGeometry x="827" y="1150" width="160" height="86" as="geometry" />
        </mxCell>
        <mxCell id="yuEU6Taa_u60sKVBq3v5-257" value="- 이름" style="text;strokeColor=none;fillColor=none;align=left;verticalAlign=top;spacingLeft=4;spacingRight=4;overflow=hidden;rotatable=0;points=[[0,0.5],[1,0.5]];portConstraint=eastwest;" vertex="1" parent="yuEU6Taa_u60sKVBq3v5-256">
          <mxGeometry y="26" width="160" height="26" as="geometry" />
        </mxCell>
        <mxCell id="yuEU6Taa_u60sKVBq3v5-258" value="" style="line;strokeWidth=1;fillColor=none;align=left;verticalAlign=middle;spacingTop=-1;spacingLeft=3;spacingRight=3;rotatable=0;labelPosition=right;points=[];portConstraint=eastwest;" vertex="1" parent="yuEU6Taa_u60sKVBq3v5-256">
          <mxGeometry y="52" width="160" height="8" as="geometry" />
        </mxCell>
        <mxCell id="yuEU6Taa_u60sKVBq3v5-259" value="-" style="text;strokeColor=none;fillColor=none;align=left;verticalAlign=top;spacingLeft=4;spacingRight=4;overflow=hidden;rotatable=0;points=[[0,0.5],[1,0.5]];portConstraint=eastwest;" vertex="1" parent="yuEU6Taa_u60sKVBq3v5-256">
          <mxGeometry y="60" width="160" height="26" as="geometry" />
        </mxCell>
        <mxCell id="yuEU6Taa_u60sKVBq3v5-260" value="치즈" style="swimlane;fontStyle=1;align=center;verticalAlign=top;childLayout=stackLayout;horizontal=1;startSize=26;horizontalStack=0;resizeParent=1;resizeParentMax=0;resizeLast=0;collapsible=1;marginBottom=0;" vertex="1" parent="WIyWlLk6GJQsqaUBKTNV-1">
          <mxGeometry x="630" y="1150" width="160" height="86" as="geometry" />
        </mxCell>
        <mxCell id="yuEU6Taa_u60sKVBq3v5-261" value="- 이름" style="text;strokeColor=none;fillColor=none;align=left;verticalAlign=top;spacingLeft=4;spacingRight=4;overflow=hidden;rotatable=0;points=[[0,0.5],[1,0.5]];portConstraint=eastwest;" vertex="1" parent="yuEU6Taa_u60sKVBq3v5-260">
          <mxGeometry y="26" width="160" height="26" as="geometry" />
        </mxCell>
        <mxCell id="yuEU6Taa_u60sKVBq3v5-262" value="" style="line;strokeWidth=1;fillColor=none;align=left;verticalAlign=middle;spacingTop=-1;spacingLeft=3;spacingRight=3;rotatable=0;labelPosition=right;points=[];portConstraint=eastwest;" vertex="1" parent="yuEU6Taa_u60sKVBq3v5-260">
          <mxGeometry y="52" width="160" height="8" as="geometry" />
        </mxCell>
        <mxCell id="yuEU6Taa_u60sKVBq3v5-263" value="-" style="text;strokeColor=none;fillColor=none;align=left;verticalAlign=top;spacingLeft=4;spacingRight=4;overflow=hidden;rotatable=0;points=[[0,0.5],[1,0.5]];portConstraint=eastwest;" vertex="1" parent="yuEU6Taa_u60sKVBq3v5-260">
          <mxGeometry y="60" width="160" height="26" as="geometry" />
        </mxCell>
        <mxCell id="yuEU6Taa_u60sKVBq3v5-264" value="소스" style="swimlane;fontStyle=1;align=center;verticalAlign=top;childLayout=stackLayout;horizontal=1;startSize=26;horizontalStack=0;resizeParent=1;resizeParentMax=0;resizeLast=0;collapsible=1;marginBottom=0;" vertex="1" parent="WIyWlLk6GJQsqaUBKTNV-1">
          <mxGeometry x="1030" y="1148" width="160" height="86" as="geometry" />
        </mxCell>
        <mxCell id="yuEU6Taa_u60sKVBq3v5-265" value="- 이름" style="text;strokeColor=none;fillColor=none;align=left;verticalAlign=top;spacingLeft=4;spacingRight=4;overflow=hidden;rotatable=0;points=[[0,0.5],[1,0.5]];portConstraint=eastwest;" vertex="1" parent="yuEU6Taa_u60sKVBq3v5-264">
          <mxGeometry y="26" width="160" height="26" as="geometry" />
        </mxCell>
        <mxCell id="yuEU6Taa_u60sKVBq3v5-266" value="" style="line;strokeWidth=1;fillColor=none;align=left;verticalAlign=middle;spacingTop=-1;spacingLeft=3;spacingRight=3;rotatable=0;labelPosition=right;points=[];portConstraint=eastwest;" vertex="1" parent="yuEU6Taa_u60sKVBq3v5-264">
          <mxGeometry y="52" width="160" height="8" as="geometry" />
        </mxCell>
        <mxCell id="yuEU6Taa_u60sKVBq3v5-267" value="-" style="text;strokeColor=none;fillColor=none;align=left;verticalAlign=top;spacingLeft=4;spacingRight=4;overflow=hidden;rotatable=0;points=[[0,0.5],[1,0.5]];portConstraint=eastwest;" vertex="1" parent="yuEU6Taa_u60sKVBq3v5-264">
          <mxGeometry y="60" width="160" height="26" as="geometry" />
        </mxCell>
        <mxCell id="yuEU6Taa_u60sKVBq3v5-268" value="" style="endArrow=block;endSize=16;endFill=0;html=1;entryX=0.456;entryY=1.308;entryDx=0;entryDy=0;entryPerimeter=0;exitX=0.5;exitY=0;exitDx=0;exitDy=0;" edge="1" parent="WIyWlLk6GJQsqaUBKTNV-1" source="yuEU6Taa_u60sKVBq3v5-260" target="yuEU6Taa_u60sKVBq3v5-253">
          <mxGeometry width="160" relative="1" as="geometry">
            <mxPoint x="690" y="1110" as="sourcePoint" />
            <mxPoint x="850" y="1110" as="targetPoint" />
          </mxGeometry>
        </mxCell>
        <mxCell id="yuEU6Taa_u60sKVBq3v5-269" value="" style="endArrow=block;endSize=16;endFill=0;html=1;entryX=0.563;entryY=1.115;entryDx=0;entryDy=0;entryPerimeter=0;exitX=0.556;exitY=-0.035;exitDx=0;exitDy=0;exitPerimeter=0;" edge="1" parent="WIyWlLk6GJQsqaUBKTNV-1" source="yuEU6Taa_u60sKVBq3v5-256" target="yuEU6Taa_u60sKVBq3v5-253">
          <mxGeometry width="160" relative="1" as="geometry">
            <mxPoint x="860" y="1120" as="sourcePoint" />
            <mxPoint x="1020" y="1120" as="targetPoint" />
          </mxGeometry>
        </mxCell>
        <mxCell id="yuEU6Taa_u60sKVBq3v5-270" value="" style="endArrow=block;endSize=16;endFill=0;html=1;exitX=0.6;exitY=-0.023;exitDx=0;exitDy=0;exitPerimeter=0;entryX=0.706;entryY=1.231;entryDx=0;entryDy=0;entryPerimeter=0;" edge="1" parent="WIyWlLk6GJQsqaUBKTNV-1" source="yuEU6Taa_u60sKVBq3v5-264" target="yuEU6Taa_u60sKVBq3v5-253">
          <mxGeometry width="160" relative="1" as="geometry">
            <mxPoint x="990" y="1100" as="sourcePoint" />
            <mxPoint x="1150" y="1100" as="targetPoint" />
          </mxGeometry>
        </mxCell>
        <mxCell id="yuEU6Taa_u60sKVBq3v5-271" value="음료" style="swimlane;fontStyle=1;align=center;verticalAlign=top;childLayout=stackLayout;horizontal=1;startSize=26;horizontalStack=0;resizeParent=1;resizeParentMax=0;resizeLast=0;collapsible=1;marginBottom=0;" vertex="1" parent="WIyWlLk6GJQsqaUBKTNV-1">
          <mxGeometry x="1150" y="1003" width="160" height="112" as="geometry" />
        </mxCell>
        <mxCell id="yuEU6Taa_u60sKVBq3v5-272" value="- 이름" style="text;strokeColor=none;fillColor=none;align=left;verticalAlign=top;spacingLeft=4;spacingRight=4;overflow=hidden;rotatable=0;points=[[0,0.5],[1,0.5]];portConstraint=eastwest;" vertex="1" parent="yuEU6Taa_u60sKVBq3v5-271">
          <mxGeometry y="26" width="160" height="26" as="geometry" />
        </mxCell>
        <mxCell id="yuEU6Taa_u60sKVBq3v5-279" value="- 용량" style="text;strokeColor=none;fillColor=none;align=left;verticalAlign=top;spacingLeft=4;spacingRight=4;overflow=hidden;rotatable=0;points=[[0,0.5],[1,0.5]];portConstraint=eastwest;" vertex="1" parent="yuEU6Taa_u60sKVBq3v5-271">
          <mxGeometry y="52" width="160" height="26" as="geometry" />
        </mxCell>
        <mxCell id="yuEU6Taa_u60sKVBq3v5-273" value="" style="line;strokeWidth=1;fillColor=none;align=left;verticalAlign=middle;spacingTop=-1;spacingLeft=3;spacingRight=3;rotatable=0;labelPosition=right;points=[];portConstraint=eastwest;" vertex="1" parent="yuEU6Taa_u60sKVBq3v5-271">
          <mxGeometry y="78" width="160" height="8" as="geometry" />
        </mxCell>
        <mxCell id="yuEU6Taa_u60sKVBq3v5-274" value="-" style="text;strokeColor=none;fillColor=none;align=left;verticalAlign=top;spacingLeft=4;spacingRight=4;overflow=hidden;rotatable=0;points=[[0,0.5],[1,0.5]];portConstraint=eastwest;" vertex="1" parent="yuEU6Taa_u60sKVBq3v5-271">
          <mxGeometry y="86" width="160" height="26" as="geometry" />
        </mxCell>
        <mxCell id="yuEU6Taa_u60sKVBq3v5-275" value="사이드" style="swimlane;fontStyle=1;align=center;verticalAlign=top;childLayout=stackLayout;horizontal=1;startSize=26;horizontalStack=0;resizeParent=1;resizeParentMax=0;resizeLast=0;collapsible=1;marginBottom=0;" vertex="1" parent="WIyWlLk6GJQsqaUBKTNV-1">
          <mxGeometry x="1380" y="997" width="160" height="86" as="geometry" />
        </mxCell>
        <mxCell id="yuEU6Taa_u60sKVBq3v5-276" value="- 이름" style="text;strokeColor=none;fillColor=none;align=left;verticalAlign=top;spacingLeft=4;spacingRight=4;overflow=hidden;rotatable=0;points=[[0,0.5],[1,0.5]];portConstraint=eastwest;" vertex="1" parent="yuEU6Taa_u60sKVBq3v5-275">
          <mxGeometry y="26" width="160" height="26" as="geometry" />
        </mxCell>
        <mxCell id="yuEU6Taa_u60sKVBq3v5-277" value="" style="line;strokeWidth=1;fillColor=none;align=left;verticalAlign=middle;spacingTop=-1;spacingLeft=3;spacingRight=3;rotatable=0;labelPosition=right;points=[];portConstraint=eastwest;" vertex="1" parent="yuEU6Taa_u60sKVBq3v5-275">
          <mxGeometry y="52" width="160" height="8" as="geometry" />
        </mxCell>
        <mxCell id="yuEU6Taa_u60sKVBq3v5-278" value="-" style="text;strokeColor=none;fillColor=none;align=left;verticalAlign=top;spacingLeft=4;spacingRight=4;overflow=hidden;rotatable=0;points=[[0,0.5],[1,0.5]];portConstraint=eastwest;" vertex="1" parent="yuEU6Taa_u60sKVBq3v5-275">
          <mxGeometry y="60" width="160" height="26" as="geometry" />
        </mxCell>
        <mxCell id="yuEU6Taa_u60sKVBq3v5-280" value="" style="endArrow=block;endSize=16;endFill=0;html=1;entryX=0.469;entryY=1.154;entryDx=0;entryDy=0;entryPerimeter=0;exitX=0.5;exitY=0;exitDx=0;exitDy=0;" edge="1" parent="WIyWlLk6GJQsqaUBKTNV-1" source="yuEU6Taa_u60sKVBq3v5-271" target="yuEU6Taa_u60sKVBq3v5-228">
          <mxGeometry width="160" relative="1" as="geometry">
            <mxPoint x="1190" y="960" as="sourcePoint" />
            <mxPoint x="1350" y="960" as="targetPoint" />
          </mxGeometry>
        </mxCell>
        <mxCell id="yuEU6Taa_u60sKVBq3v5-281" value="" style="endArrow=block;endSize=16;endFill=0;html=1;exitX=0.5;exitY=0;exitDx=0;exitDy=0;entryX=0.625;entryY=1.115;entryDx=0;entryDy=0;entryPerimeter=0;" edge="1" parent="WIyWlLk6GJQsqaUBKTNV-1" source="yuEU6Taa_u60sKVBq3v5-275" target="yuEU6Taa_u60sKVBq3v5-228">
          <mxGeometry width="160" relative="1" as="geometry">
            <mxPoint x="1390" y="950" as="sourcePoint" />
            <mxPoint x="1550" y="950" as="targetPoint" />
          </mxGeometry>
        </mxCell>
        <mxCell id="yuEU6Taa_u60sKVBq3v5-283" value="주문 결제 패키지" style="text;align=center;fontStyle=1;verticalAlign=middle;spacingLeft=3;spacingRight=3;strokeColor=none;rotatable=0;points=[[0,0.5],[1,0.5]];portConstraint=eastwest;" vertex="1" parent="WIyWlLk6GJQsqaUBKTNV-1">
          <mxGeometry x="470" y="-130" width="80" height="26" as="geometry" />
        </mxCell>
        <mxCell id="yuEU6Taa_u60sKVBq3v5-285" value="키오스크 시스템 패키지" style="text;align=center;fontStyle=1;verticalAlign=middle;spacingLeft=3;spacingRight=3;strokeColor=none;rotatable=0;points=[[0,0.5],[1,0.5]];portConstraint=eastwest;" vertex="1" parent="WIyWlLk6GJQsqaUBKTNV-1">
          <mxGeometry x="-420" y="-240" width="80" height="26" as="geometry" />
        </mxCell>
      </root>
    </mxGraphModel>
  </diagram>
</mxfile>
